<?xml version="1.0" encoding="UTF-8"?>
<svg version="1.1" xmlns="http://www.w3.org/2000/svg" width="40" height="40">
<path d="M0 0 C4.57498557 3.40464042 8.8610727 7.52071811 10.6875 13 C11.63965468 25.68929215 11.63965468 25.68929215 7.6875 31 C2.29297779 36.39452221 -1.31885893 39.13217146 -9.125 39.25 C-15.15586159 39.16301642 -18.8032874 38.5092126 -23.1875 34.125 C-28.69300854 28.08670031 -29.63308855 24.08163981 -29.515625 15.9375 C-29.10284458 9.96806014 -26.57330559 7.07235215 -22.3125 3.1875 C-16.0080774 -2.22140803 -7.80808311 -2.35715717 0 0 Z M-25.8125 9.0625 C-28.2618395 14.09298202 -28.13455097 19.57013699 -27.3125 25 C-25.47840891 30.00723099 -22.35125577 33.98999992 -17.4609375 36.37109375 C-12.01697148 37.96469108 -6.2515215 38.07652975 -0.90234375 36.1171875 C3.68709877 33.52651153 7.17739113 30.15875701 8.6875 25 C9.53661614 19.12896839 9.59685055 13.76470213 6.625 8.5 C3.12215044 3.82953391 -0.39997272 1.42123328 -6.1484375 0.58984375 C-15.01194902 0.15448235 -20.22131933 2.21330368 -25.8125 9.0625 Z " fill="#E66793" transform="translate(29.3125,1)"/>
<path d="M0 0 C1.08667969 -0.01740234 1.08667969 -0.01740234 2.1953125 -0.03515625 C5.04750459 -0.01936921 7.41621751 0.07272527 9.9765625 1.3984375 C11.63133435 4.59429459 11.43121399 7.86474854 11.375 11.375 C11.38660156 12.09945313 11.39820312 12.82390625 11.41015625 13.5703125 C11.39436921 16.42250459 11.30227473 18.79121751 9.9765625 21.3515625 C6.78070541 23.00633435 3.51025146 22.80621399 0 22.75 C-1.08667969 22.76740234 -1.08667969 22.76740234 -2.1953125 22.78515625 C-5.04750459 22.76936921 -7.41621751 22.67727473 -9.9765625 21.3515625 C-11.63133435 18.15570541 -11.43121399 14.88525146 -11.375 11.375 C-11.38660156 10.65054687 -11.39820313 9.92609375 -11.41015625 9.1796875 C-11.39436921 6.32749541 -11.30227473 3.95878249 -9.9765625 1.3984375 C-6.78070541 -0.25633435 -3.51025146 -0.05621399 0 0 Z M-7.625 3.75 C-9.79453746 7.89184424 -9.71310035 11.80812326 -9 16.375 C-7.83333333 19.20833333 -7.83333333 19.20833333 -5 20.375 C-0.43312326 21.08810035 3.48315576 21.16953746 7.625 19 C9.79453746 14.85815576 9.71310035 10.94187674 9 6.375 C7.83333333 3.54166667 7.83333333 3.54166667 5 2.375 C0.43312326 1.66189965 -3.48315576 1.58046254 -7.625 3.75 Z " fill="#75488E" transform="translate(20,8.625)"/>
<path d="M0 0 C2 3 2 3 1.8125 6.0625 C1 9 1 9 -2 11 C-5.1875 10.625 -5.1875 10.625 -8 10 C-10.19130435 4.64347826 -10.19130435 4.64347826 -9.3125 1.6875 C-6.68853034 -1.68617528 -3.71470199 -1.14298523 0 0 Z M-5 2 C-5.66 2.66 -6.32 3.32 -7 4 C-6.6814823 6.10820797 -6.6814823 6.10820797 -6 8 C-4.35 7.67 -2.7 7.34 -1 7 C-1.33 5.35 -1.66 3.7 -2 2 C-2.99 2 -3.98 2 -5 2 Z " fill="#A63B5F" transform="translate(24,15)"/>
<path d="M0 0 C1.90845703 0.04060547 1.90845703 0.04060547 3.85546875 0.08203125 C5.31919922 0.13423828 5.31919922 0.13423828 6.8125 0.1875 C7.1425 0.8475 7.4725 1.5075 7.8125 2.1875 C6.56533203 2.24357422 6.56533203 2.24357422 5.29296875 2.30078125 C4.20628906 2.36652344 3.11960937 2.43226562 2 2.5 C0.38158203 2.58701172 0.38158203 2.58701172 -1.26953125 2.67578125 C-4.13241521 2.98328129 -4.13241521 2.98328129 -6.03125 4.375 C-7.62659309 6.87580808 -7.70181013 8.93077214 -7.875 11.875 C-7.97361328 13.36580078 -7.97361328 13.36580078 -8.07421875 14.88671875 C-8.13029297 16.02560547 -8.13029297 16.02560547 -8.1875 17.1875 C-8.8475 17.1875 -9.5075 17.1875 -10.1875 17.1875 C-10.26847324 14.91725032 -10.32667704 12.64617925 -10.375 10.375 C-10.40980469 9.11042969 -10.44460938 7.84585937 -10.48046875 6.54296875 C-10.1875 3.1875 -10.1875 3.1875 -9.125 1.25 C-6.10294145 -0.40725792 -3.40573004 -0.09373569 0 0 Z " fill="#F79C61" transform="translate(19.1875,8.8125)"/>
<path d="M0 0 C0.54140625 0.48082031 1.0828125 0.96164063 1.640625 1.45703125 C4.47897288 3.31323558 6.38792626 3.48737656 9.75 3.6875 C11.22726563 3.78611328 11.22726563 3.78611328 12.734375 3.88671875 C13.85585938 3.94279297 13.85585938 3.94279297 15 4 C15 4.66 15 5.32 15 6 C12.72975032 6.08097324 10.45867925 6.13917704 8.1875 6.1875 C6.29064453 6.23970703 6.29064453 6.23970703 4.35546875 6.29296875 C1 6 1 6 -0.94921875 4.61328125 C-2 3 -2 3 -2 1 C-1.34 0.67 -0.68 0.34 0 0 Z " fill="#8E509E" transform="translate(11,25)"/>
<path d="M0 0 C4.875 0.875 4.875 0.875 6 2 C6.04063832 3.66617115 6.042721 5.33388095 6 7 C5.38125 6.2884375 5.38125 6.2884375 4.75 5.5625 C2.817815 3.83733482 1.51807725 3.43415125 -1 3 C-0.67 2.01 -0.34 1.02 0 0 Z " fill="#B93C6C" transform="translate(19,14)"/>
<path d="M0 0 C1.65 1.65 3.3 3.3 5 5 C3.1875 5.6875 3.1875 5.6875 1 6 C-0.75 4.6875 -0.75 4.6875 -2 3 C-2 2.34 -2 1.68 -2 1 C-1.34 0.67 -0.68 0.34 0 0 Z " fill="#AB336B" transform="translate(11,25)"/>
<path d="M0 0 C0.6875 1.8125 0.6875 1.8125 1 4 C-0.4375 5.75 -0.4375 5.75 -2 7 C-3.32 6.34 -4.64 5.68 -6 5 C-5.01 4.67 -4.02 4.34 -3 4 C-2.34 3.01 -1.68 2.02 -1 1 C-0.67 0.67 -0.34 0.34 0 0 Z " fill="#7E2F6A" transform="translate(25,18)"/>
<path d="M0 0 C2 1 2 1 3 3 C1.68 3.99 0.36 4.98 -1 6 C-1.66 5.67 -2.32 5.34 -3 5 C-1.125 1.125 -1.125 1.125 0 0 Z " fill="#BB9951" transform="translate(12,9)"/>
<path d="M0 0 C1.9375 0.8125 1.9375 0.8125 4 2 C4.33 2.99 4.66 3.98 5 5 C4.01 5.33 3.02 5.66 2 6 C1.01 4.68 0.02 3.36 -1 2 C-0.67 1.34 -0.34 0.68 0 0 Z " fill="#9D2D62" transform="translate(26,9)"/>
<path d="M0 0 C0.99 0 1.98 0 3 0 C3 0.99 3 1.98 3 3 C2.01 2.67 1.02 2.34 0 2 C0 1.34 0 0.68 0 0 Z " fill="#A92D67" transform="translate(24,13)"/>
</svg>
