<svg xmlns="http://www.w3.org/2000/svg" xmlns:xlink="http://www.w3.org/1999/xlink" width="40" height="40" viewBox="0 0 40 40">
  <defs>
    <clipPath id="clip-path">
      <rect id="Rectangle_90" data-name="Rectangle 90" width="22" height="22" transform="translate(0 -0.38)" fill="none"/>
    </clipPath>
  </defs>
  <g id="Group_269" data-name="Group 269" transform="translate(-310 -8806)">
    <g id="Ellipse_47" data-name="Ellipse 47" transform="translate(310 8806)" fill="none" stroke="#1b80e4" stroke-width="1">
      <circle cx="20" cy="20" r="20" stroke="none"/>
      <circle cx="20" cy="20" r="19.5" fill="none"/>
    </g>
    <g id="Group_241" data-name="Group 241" transform="translate(319 8815.191)">
      <rect id="Rectangle_89" data-name="Rectangle 89" width="3.921" height="12.088" transform="translate(2.256 7.486)" fill="#1b80e4"/>
      <g id="Group_244" data-name="Group 244" transform="translate(0 0.189)">
        <g id="Group_243" data-name="Group 243" clip-path="url(#clip-path)">
          <path id="Path_304" data-name="Path 304" d="M289.794,280.533c-.04-.015-.081-.026-.125-.041s-.106-.022-.158-.029a3.611,3.611,0,0,0-.7-.07,5.451,5.451,0,0,0-4.215,2.311v-2.311h-3.924v12.089h3.921v-6.6s2.961-4.137,4.214-1.1v7.69h3.92v-8.157a3.919,3.919,0,0,0-2.932-3.788" transform="translate(-272.936 -273.095)" fill="#1b80e4"/>
          <path id="Path_305" data-name="Path 305" d="M85.7,82.989a1.918,1.918,0,1,1-1.918-1.921A1.92,1.92,0,0,1,85.7,82.989" transform="translate(-79.607 -79.262)" fill="#1b80e4"/>
        </g>
      </g>
    </g>
  </g>
</svg>
