<svg xmlns="http://www.w3.org/2000/svg" xmlns:xlink="http://www.w3.org/1999/xlink" width="40" height="40" viewBox="0 0 40 40">
  <defs>
    <clipPath id="clip-path">
      <rect id="Rectangle_95" data-name="Rectangle 95" width="22" height="18.107" fill="none"/>
    </clipPath>
  </defs>
  <g id="Group_270" data-name="Group 270" transform="translate(-310 -8806)">
    <g id="Ellipse_47" data-name="Ellipse 47" transform="translate(310 8806)" fill="none" stroke="#00ade5" stroke-width="1">
      <circle cx="20" cy="20" r="20" stroke="none"/>
      <circle cx="20" cy="20" r="19.5" fill="none"/>
    </g>
    <g id="Group_247" data-name="Group 247" transform="translate(319 8817)">
      <g id="Group_247-2" data-name="Group 247" clip-path="url(#clip-path)">
        <path id="Path_306" data-name="Path 306" d="M21.91,2.171a9.087,9.087,0,0,1-2.225.634c.358-.06.883-.708,1.094-.97A4.08,4.08,0,0,0,21.517.488c.02-.038.034-.087,0-.116a.126.126,0,0,0-.118.01,11.35,11.35,0,0,1-2.638,1.009.177.177,0,0,1-.182-.048,2.153,2.153,0,0,0-.23-.236A4.666,4.666,0,0,0,17.066.325a4.452,4.452,0,0,0-1.96-.316,4.685,4.685,0,0,0-1.859.525,4.793,4.793,0,0,0-1.5,1.225,4.607,4.607,0,0,0-.9,1.794A4.858,4.858,0,0,0,10.8,5.448c.014.106,0,.12-.091.106A14.089,14.089,0,0,1,1.649.94C1.543.82,1.486.82,1.4.949A4.6,4.6,0,0,0,2.182,6.38c.178.168.36.337.557.49A4.617,4.617,0,0,1,.99,6.38c-.106-.067-.159-.029-.168.092a2.746,2.746,0,0,0,.029.519A4.647,4.647,0,0,0,3.715,10.7a2.724,2.724,0,0,0,.581.178,5.179,5.179,0,0,1-1.715.053c-.125-.024-.173.039-.125.159A4.825,4.825,0,0,0,6.06,14.1c.163.029.327.029.491.067-.01.015-.02.015-.029.029A5.707,5.707,0,0,1,4.06,15.5a8.814,8.814,0,0,1-3.738.479c-.2-.03-.243-.027-.3,0s-.007.082.058.134c.255.168.514.318.779.462a12.335,12.335,0,0,0,2.5,1,13.31,13.31,0,0,0,12.922-3.021c2.648-2.631,3.576-6.259,3.576-9.892,0-.142.168-.221.267-.3A8.739,8.739,0,0,0,21.884,2.54.557.557,0,0,0,22,2.189V2.171c0-.058,0-.041-.09,0" transform="translate(0 0)" fill="#00ade5"/>
      </g>
    </g>
  </g>
</svg>
